<?xml version="1.0" encoding="UTF-8"?>
<svg version="1.1" xmlns="http://www.w3.org/2000/svg" width="1000" height="1000">
<path d="M0 0 C330 0 660 0 1000 0 C1000 330 1000 660 1000 1000 C670 1000 340 1000 0 1000 C0 670 0 340 0 0 Z " fill="#FEFEFE" transform="translate(0,0)"/>
<path d="M0 0 C330 0 660 0 1000 0 C1000 330 1000 660 1000 1000 C670 1000 340 1000 0 1000 C0 670 0 340 0 0 Z M100 100 C100 364 100 628 100 900 C364 900 628 900 900 900 C900 636 900 372 900 100 C636 100 372 100 100 100 Z " fill="#FFFFFF" transform="translate(0,0)"/>
<path d="M0 0 C264 0 528 0 800 0 C800 264 800 528 800 800 C536 800 272 800 0 800 C0 536 0 272 0 0 Z M115 115 C115 303.1 115 491.2 115 685 C303.43 685 491.86 685 686 685 C686 496.9 686 308.8 686 115 C497.57 115 309.14 115 115 115 Z " fill="#FDFDFD" transform="translate(100,100)"/>
<path d="M0 0 C264 0 528 0 800 0 C800 264 800 528 800 800 C536 800 272 800 0 800 C0 536 0 272 0 0 Z M40 40 C40 277.6 40 515.2 40 760 C277.6 760 515.2 760 760 760 C760 522.4 760 284.8 760 40 C522.4 40 284.8 40 40 40 Z " fill="#000000" transform="translate(100,100)"/>
<path d="M0 0 C2.04879406 -0.00219174 4.09705187 -0.02045733 6.14575195 -0.03930664 C17.41615519 -0.08725826 29.86831036 -0.03924163 40.11645508 5.18530273 C40.81567383 7.28686523 40.81567383 7.28686523 41.11645508 9.18530273 C39.62758789 9.8775293 39.62758789 9.8775293 38.10864258 10.58374023 C27.0524379 15.84618693 17.14679246 21.98528786 7.84301758 29.98608398 C5.11645508 32.18530273 5.11645508 32.18530273 3.11645508 32.18530273 C3.11645508 32.84530273 3.11645508 33.50530273 3.11645508 34.18530273 C1.71801758 35.56030273 1.71801758 35.56030273 -0.25854492 37.18530273 C-9.15156707 44.29301048 -9.15156707 44.29301048 -15.88354492 53.18530273 C-16.54354492 53.18530273 -17.20354492 53.18530273 -17.88354492 53.18530273 C-18.30108032 54.07125122 -18.30108032 54.07125122 -18.72705078 54.97509766 C-19.80533433 57.0358325 -20.9547327 58.72418326 -22.38745117 60.54858398 C-22.87640869 61.18038574 -23.36536621 61.8121875 -23.86914062 62.46313477 C-24.38951904 63.1345752 -24.90989746 63.80601562 -25.44604492 64.49780273 C-34.43134119 76.30458188 -41.49211969 88.82141361 -47.88354492 102.18530273 C-48.31151367 103.02577148 -48.73948242 103.86624023 -49.18041992 104.73217773 C-68.85553398 144.84896874 -69.63184209 192.99496686 -56.88354492 235.18530273 C-56.6850293 235.84578613 -56.48651367 236.50626953 -56.28198242 237.18676758 C-54.94242529 241.5682357 -53.45347385 245.88153204 -51.88354492 250.18530273 C-51.64442383 250.84175781 -51.40530273 251.49821289 -51.15893555 252.17456055 C-43.85806124 271.87190654 -32.74795375 289.08865751 -19.35229492 305.18920898 C-17.88354492 307.18530273 -17.88354492 307.18530273 -17.88354492 309.18530273 C-17.22354492 309.18530273 -16.56354492 309.18530273 -15.88354492 309.18530273 C-14.50854492 310.58374023 -14.50854492 310.58374023 -12.88354492 312.56030273 C-5.77583717 321.45332489 -5.77583717 321.45332489 3.11645508 328.18530273 C3.11645508 328.84530273 3.11645508 329.50530273 3.11645508 330.18530273 C3.70346191 330.46148438 4.29046875 330.73766602 4.89526367 331.0222168 C7.01266622 332.13095561 8.7701191 333.33304007 10.65551758 334.79467773 C11.31310059 335.299104 11.97068359 335.80353027 12.64819336 336.32324219 C13.33896973 336.85522217 14.02974609 337.38720215 14.74145508 337.93530273 C24.94968431 345.67453825 35.60330836 351.62497619 47.11645508 357.18530273 C48.04458008 357.6403418 48.97270508 358.09538086 49.92895508 358.56420898 C61.36379589 363.99235514 73.08649784 367.34027533 85.42895508 369.93530273 C86.93171997 370.25144531 86.93171997 370.25144531 88.46484375 370.57397461 C99.1252284 372.72491636 109.41632318 373.37192704 120.29150391 373.37060547 C122.28332641 373.37278021 124.27510933 373.39126105 126.2668457 373.40991211 C150.25828509 373.44545498 172.96247371 367.85130841 194.47192383 357.32202148 C197.11645508 356.18530273 197.11645508 356.18530273 200.11645508 356.18530273 C199.7529074 361.51733542 196.78434668 364.39244428 193.36645508 368.18530273 C192.49778809 369.16563477 192.49778809 369.16563477 191.61157227 370.16577148 C173.74656255 390.12516645 173.74656255 390.12516645 164.11645508 396.18530273 C163.45645508 396.18530273 162.79645508 396.18530273 162.11645508 396.18530273 C162.11645508 396.84530273 162.11645508 397.50530273 162.11645508 398.18530273 C160.80981445 399.37109375 160.80981445 399.37109375 158.96020508 400.68920898 C157.9334668 401.42252441 157.9334668 401.42252441 156.88598633 402.1706543 C156.13704102 402.69111328 155.3880957 403.21157227 154.61645508 403.74780273 C153.84688477 404.28501953 153.07731445 404.82223633 152.28442383 405.37573242 C126.7569172 422.93372696 98.40683385 434.22851201 68.11645508 440.18530273 C67.25584473 440.36134033 66.39523437 440.53737793 65.50854492 440.71875 C39.24623513 445.98510229 12.48149529 445.74661047 -13.88354492 441.18530273 C-14.73045898 441.0407666 -15.57737305 440.89623047 -16.44995117 440.74731445 C-27.54747496 438.78701242 -38.1351437 435.77407644 -48.73120117 431.95874023 C-50.82860245 431.20504613 -52.93319596 430.47531889 -55.03979492 429.74780273 C-64.51195518 426.40964667 -73.13229697 422.08560561 -81.88354492 417.18530273 C-83.73749069 416.20571788 -85.59163931 415.2265168 -87.44604492 414.24780273 C-98.42694545 408.2107549 -108.37677818 401.34701868 -117.88354492 393.18530273 C-119.01809588 392.23504941 -120.15355857 391.2858839 -121.28979492 390.33764648 C-132.6018399 380.84523755 -142.70320581 370.79673165 -151.88354492 359.18530273 C-152.53838867 358.39768555 -153.19323242 357.61006836 -153.86791992 356.79858398 C-159.78452649 349.63949004 -164.88934687 342.00258629 -169.88354492 334.18530273 C-170.81166992 332.73704102 -170.81166992 332.73704102 -171.75854492 331.25952148 C-200.80101332 283.72937065 -209.58667391 224.36799821 -198.88354492 170.18530273 C-198.61542032 168.67425363 -198.35075488 167.162584 -198.09057617 165.65014648 C-196.72842392 158.13196913 -194.68239203 151.2776194 -191.88354492 144.18530273 C-191.22890023 142.35189598 -190.57425902 140.51848799 -189.91967773 138.68505859 C-187.38840173 131.68988932 -184.49032375 124.91516191 -181.32104492 118.18530273 C-180.9572876 117.40864258 -180.59353027 116.63198242 -180.21875 115.83178711 C-177.76559895 110.71541916 -174.96610898 105.94473503 -171.88354492 101.18530273 C-171.30991211 100.26104492 -170.7362793 99.33678711 -170.14526367 98.38452148 C-156.53634106 76.67102958 -139.34549354 56.7314679 -118.88354492 41.18530273 C-118.0044043 40.51241211 -117.12526367 39.83952148 -116.21948242 39.14624023 C-81.92665788 13.55015506 -42.78412315 -0.00509638 0 0 Z " fill="#000000" transform="translate(490.883544921875,279.814697265625)"/>
<path d="M0 0 C1.30442549 -0.00490829 1.30442549 -0.00490829 2.635203 -0.00991574 C4.08746863 -0.0076903 4.08746863 -0.0076903 5.56907296 -0.00541991 C6.59188328 -0.00777214 7.61469359 -0.01012437 8.66849816 -0.01254788 C12.1418683 -0.01927588 15.61520137 -0.01877852 19.08857751 -0.01836985 C21.58550671 -0.02166612 24.08243537 -0.02539117 26.57936335 -0.02951133 C32.75167389 -0.03850938 38.92397319 -0.04276327 45.0962894 -0.0450303 C52.4848548 -0.04798635 59.87341061 -0.05668022 67.26197099 -0.06544458 C85.12326928 -0.08631437 102.98456924 -0.09676268 120.84587688 -0.10557419 C129.29085258 -0.10977701 137.73582756 -0.11499948 146.18080265 -0.12025872 C175.07276717 -0.13815093 203.9647319 -0.15314831 232.85670114 -0.16057891 C234.67142789 -0.16105367 236.48615465 -0.16152956 238.3008814 -0.16200657 C239.20084898 -0.16224294 240.10081656 -0.16247932 241.02805589 -0.16272286 C245.58796365 -0.16392409 250.14787141 -0.16513953 254.70777917 -0.16636485 C255.61271716 -0.166605 256.51765515 -0.16684515 257.4500155 -0.16709258 C286.80049941 -0.17498823 316.15094294 -0.1984245 345.50140921 -0.23092079 C376.51164831 -0.26519225 407.52186378 -0.28492756 438.53212214 -0.28822315 C441.93412186 -0.28864071 445.33612156 -0.28912027 448.73812127 -0.28964633 C449.57582685 -0.28976952 450.41353242 -0.28989271 451.27662302 -0.29001964 C464.77770864 -0.29235502 478.27874749 -0.30803383 491.77981642 -0.32848817 C505.34214728 -0.34870987 518.90442176 -0.35424085 532.4667649 -0.34471754 C540.53086944 -0.33948827 548.59478678 -0.34544694 556.65886451 -0.36725221 C562.67066735 -0.38228393 568.68225772 -0.37656579 574.69407108 -0.36258169 C577.13355192 -0.36018537 579.57305049 -0.36463262 582.01250407 -0.37641034 C585.3150946 -0.39137457 588.61672737 -0.38196378 591.91929269 -0.36618346 C592.87810511 -0.37640567 593.83691753 -0.38662787 594.82478487 -0.39715984 C599.0832147 -0.35240144 601.37641276 -0.25611141 605.06315088 2.03473771 C607.72833992 4.92242534 608.12092442 6.43534772 608.12466627 10.25713456 C608.12793847 11.12899884 608.13121066 12.00086313 608.13458201 12.89914754 C608.13309839 13.86469761 608.13161477 14.83024769 608.13008618 15.82505685 C608.13243841 16.84902101 608.13479064 17.87298517 608.13721415 18.92797855 C608.14393292 22.39925213 608.14344507 25.87048853 608.14303613 29.34176809 C608.14633295 31.83956034 608.15005813 34.33735206 608.15417761 36.83514309 C608.16317017 43.00570674 608.1674285 49.17625916 608.16969657 55.34682847 C608.1726542 62.73410868 608.18134897 70.12137932 608.19011085 77.50865452 C608.21097341 95.3654882 608.22142756 113.22232355 608.23024046 131.07916658 C608.23444404 139.52238491 608.23966639 147.96560253 608.24492499 156.40882026 C608.26281597 185.29646807 608.2778135 214.18411607 608.28524518 243.07176858 C608.28571994 244.88595481 608.28619583 246.70014104 608.28667284 248.51432727 C608.28702741 249.86386987 608.28702741 249.86386987 608.28738913 251.24067596 C608.28859036 255.79916887 608.2898058 260.35766178 608.29103112 264.91615468 C608.29127127 265.82080979 608.29151142 266.72546489 608.29175885 267.65753379 C608.29965517 297.00133465 608.32309344 326.34509513 608.35558707 355.68887835 C608.3898584 386.69449654 608.40959378 417.70009109 608.41288942 448.70572853 C608.41330698 452.10715098 608.41378655 455.50857342 608.4143126 458.90999585 C608.41443579 459.74755493 608.41455898 460.585114 608.41468591 461.44805366 C608.41702122 474.94629482 608.43269949 488.44448921 608.45315445 501.94271369 C608.47337586 515.50156188 608.47890724 529.06035368 608.46938381 542.61921415 C608.46415457 550.68110206 608.47011313 558.7428027 608.49191848 566.80466378 C608.50695017 572.81477466 608.50123209 578.82467301 608.48724797 584.83479442 C608.48485165 587.27357243 608.48929887 589.71236817 608.50107662 592.15111891 C608.51604085 595.45274772 608.50663006 598.75341848 608.49084973 602.05502206 C608.50107194 603.01354863 608.51129415 603.97207521 608.52182612 604.95964804 C608.47706127 609.21745069 608.38055911 611.50973581 606.08992857 615.19591236 C603.2022801 617.86130599 601.6894071 618.25386039 597.86753172 618.25760233 C596.99566743 618.26087453 596.12380315 618.26414672 595.22551873 618.26751807 C593.77719362 618.26529264 593.77719362 618.26529264 592.29960942 618.26302224 C591.27564526 618.26537447 590.2516811 618.2677267 589.19668773 618.27015021 C585.72541415 618.27686898 582.25417775 618.27638113 578.78289819 618.27597219 C576.28510593 618.27926902 573.78731422 618.28299419 571.28952318 618.28711367 C565.11895953 618.29610623 558.94840712 618.30036456 552.7778378 618.30263263 C545.39055759 618.30559026 538.00328696 618.31428503 530.61601176 618.32304691 C512.75917808 618.34390947 494.90234272 618.35436362 477.0454997 618.36317652 C468.60228136 618.3673801 460.15906374 618.37260245 451.71584601 618.37786105 C422.82819821 618.39575203 393.94055021 618.41074956 365.05289769 618.41818124 C363.23871146 618.418656 361.42452523 618.41913189 359.610339 618.4196089 C358.71064394 618.41984528 357.81094887 618.42008165 356.88399032 618.42032519 C352.3254974 618.42152642 347.7670045 618.42274186 343.20851159 618.42396718 C342.30385649 618.42420733 341.39920138 618.42444748 340.46713249 618.42469491 C311.12333163 618.43259123 281.77957114 618.45602951 252.43578792 618.48852313 C221.43016974 618.52279446 190.42457519 618.54252984 159.41893774 618.54582548 C156.01751529 618.54624304 152.61609286 618.54672261 149.21467042 618.54724866 C148.37711134 618.54737185 147.53955227 618.54749504 146.67661262 618.54762197 C133.17837145 618.54995728 119.68017706 618.56563555 106.18195259 618.58609051 C92.6231044 618.60631192 79.06431259 618.6118433 65.50545212 618.60231987 C57.44356422 618.59709063 49.38186357 618.60304919 41.3200025 618.62485455 C35.30989162 618.63988623 29.29999326 618.63416816 23.28987185 618.62018403 C20.85109384 618.61778771 18.41229811 618.62223493 15.97354736 618.63401268 C12.67191856 618.64897691 9.37124779 618.63956612 6.06964421 618.62378579 C5.11111764 618.634008 4.15259106 618.64423021 3.16501823 618.65476218 C-1.09278442 618.60999733 -3.38506954 618.51349517 -7.07124609 616.22286463 C-9.73638433 613.33549284 -10.12921228 611.82199657 -10.13408673 608.00046778 C-10.13761515 607.12860349 -10.14114357 606.25673921 -10.14477891 605.35845479 C-10.14298224 603.91012968 -10.14298224 603.91012968 -10.14114928 602.43254548 C-10.14380111 601.40858132 -10.14645294 600.38461716 -10.14918512 599.32962379 C-10.15691572 595.85835158 -10.15743872 592.38711452 -10.15803504 588.91583425 C-10.16204718 586.41804188 -10.16648498 583.92025017 -10.1713146 581.42245924 C-10.18205252 575.25189665 -10.18804255 569.08134404 -10.19202347 562.91077386 C-10.19702661 555.52349264 -10.20775312 548.1362225 -10.21850521 540.74894782 C-10.24415264 522.89211628 -10.25917345 505.03528043 -10.27201568 487.17843576 C-10.27626852 481.26585713 -10.2808342 475.35327882 -10.28559899 469.44070059 C-10.31085573 438.02241445 -10.33291015 406.60412781 -10.34532714 375.18583375 C-10.34824861 367.9043717 -10.3512161 360.62290967 -10.35423255 353.34144765 C-10.35478891 351.984465 -10.35478891 351.984465 -10.35535652 350.60006855 C-10.36751726 321.25625767 -10.39846938 291.91250671 -10.44015407 262.56872398 C-10.48290831 232.41718757 -10.50956384 202.26568281 -10.51480185 172.11411526 C-10.51554234 167.8586123 -10.51645303 163.60310939 -10.51745963 159.34760648 C-10.51765025 158.5100474 -10.51784086 157.67248833 -10.51803725 156.80954868 C-10.52155562 143.31129454 -10.5418755 129.81311526 -10.56825627 116.31488865 C-10.59435669 102.7560334 -10.60214709 89.19726496 -10.59115498 75.63838818 C-10.58516335 67.57645899 -10.59316716 59.51482349 -10.62098581 51.45293856 C-10.64019543 45.44279129 -10.63347077 39.43297418 -10.61641665 33.42280791 C-10.61359561 30.98402748 -10.6193304 28.54521997 -10.63422959 26.10648342 C-10.65317703 22.80467196 -10.64165329 19.50435512 -10.62216735 16.20258027 C-10.63501657 15.2440537 -10.64786579 14.28552713 -10.66110438 13.29795429 C-10.60056297 8.66556725 -10.52745279 6.7770208 -7.52800786 3.06168997 C-6.69512978 2.42383667 -5.8622517 1.78598336 -5.00413489 1.12880117 C-3.47856999 -0.39676374 -2.12886896 0.00208391 0 0 Z M13.99586511 24.12880117 C13.99586511 212.22880117 13.99586511 400.32880117 13.99586511 594.12880117 C202.42586511 594.12880117 390.85586511 594.12880117 584.99586511 594.12880117 C584.99586511 406.02880117 584.99586511 217.92880117 584.99586511 24.12880117 C396.56586511 24.12880117 208.13586511 24.12880117 13.99586511 24.12880117 Z " fill="#030303" transform="translate(201.00413489341736,190.87119883298874)"/>
</svg>
